<svg version="1" xmlns="http://www.w3.org/2000/svg" width="346.667" height="346.667" viewBox="0 0 260.000000 260.000000"><path d="M0 130v130h126.9l.3-2.7c.2-1.7.8-2.7 1.6-2.5.8.1 1.1-.2.7-.9-.4-.6.2-1.7 1.3-2.5 1.4-.9 1.8-2.1 1.5-3.5-.5-1.9-.3-2.1 2.8-1.5 2.1.5 2.9.4 2.1-.2-1-.7-.9-1.2.4-2.3 1-.8 1.5-.9 1.2-.4-.4.6.3 1.7 1.5 2.4 1.8 1.1 2 1.1 1 0-.7-.7-1.3-2.4-1.3-3.8.1-4.3 7.3-14.5 12.1-17.2 2.4-1.3 3-1.5 4.9-1.8.9-.1 4-6.3 4-8 0-.3-1.1-1.8-2.5-3.3-1.4-1.5-2.5-3.3-2.5-3.9 0-.7-.3-.9-.7-.6-.7.7-1.9-1.1-5.5-8.3-1.9-3.8-2.2-6-2.2-14.3.1-7.2.5-10.1 1.4-10.7.8-.5 1.8-.6 2.2-.4.4.3.8-.1.8-.8 0-.8.3-.9.8-.3 1 1.3 4.2 1.8 4.2.6 0-.5-.3-1.1-.7-1.4-.5-.2-.2-.2.5-.1 1.4.4 11.2-8.8 11.2-10.5 0-.7.5-.9 1-.6.6.3 1 .1 1-.4 0-.6.8-1.9 1.8-2.9.9-.9 2.5-3 3.5-4.5s4.3-5.5 7.4-8.8c3.1-3.3 6.4-7.2 7.3-8.7 1-1.5 2.7-3.6 3.9-4.6 1.1-1.1 2.1-2.7 2.1-3.7s1.4-3.5 3.2-5.4c2.6-3.1 3.3-3.4 4-2.1.5.9 1.4 1.3 2 1 .7-.5.8-.2.3.6-.6 1-.3 1.2 1.1.8 1.4-.4 2 0 2.1 1.3.1 1.1-.2 1.9-.8 1.9-.5 0-.9.5-.9 1.1 0 .5.4.7 1 .4 1.2-.7.1 5.7-1.1 6.5-.5.3-.7 1.6-.4 2.8.2 1.2 0 2.2-.5 2.2-.4 0-.6.9-.3 2s1 1.7 1.7 1.3c.6-.3.6 0-.1.8-.7.7-1.3 2.1-1.3 3.2s-.4 1.5-1.2 1.1c-.7-.5-.8-.3-.3.6.6 1 1.1.9 2.3-.6 1.3-1.8 1.4-1.7.8.8-.4 1.7-.2 2.8.4 2.8.6 0 .9.4.5.9-.3.5-.1 1.2.5 1.6.5.3 1 0 1-.7.1-.7.6-.3 1.3 1 .7 1.2 1.5 2 1.8 1.7.3-.3.6.8.6 2.5 0 1.6-.5 3-1.1 3-.6 0-.5.4.3.9.9.6 1 1 .2 1.6-1.5.9 2.7 5.3 5.5 5.8 3.6.7 5.5 2 5 3.3-.3.8-.2 1.3.2 1.3 2.5-.4 4.2.4 4.8 2.3.4 1.3.6 2.4.5 2.6-.1.1.6 1.6 1.4 3.2.9 1.7 1.2 3 .8 3-.4 0 .2.6 1.2 1.4 1.1.8 1.6 1.9 1.2 3-.4 1.1-.3 1.5.4 1 .8-.4.9.1.4 1.6-.5 1.4-.3 2 .3 1.6.6-.4.8.2.4 1.6-.4 1.5-.2 1.9.7 1.3 1-.5 1.1-.2.6 1.4-.3 1.1-.3 2.1.2 2.1.4 0 .9 1.7 1 3.8.2 2.8 1 4.3 3.5 6.2 7 5.5 9.2 8.1 7.7 9.2-1.2.8-1.2.9.1.5.8-.2 1.4-1.2 1.4-2.1-.1-1 .6-1.6 1.7-1.6 1 0 1.9.4 1.9.8s1.3 1.3 3 1.9l3 1.1V0h-88.7C93.4.1 82.2.3 80 1.6c-1.4.8-1.7 1.3-.7 1 1-.3 1.7 0 1.7.9 0 1.3-1.7 3-3.2 3-.3 0-1 .4-1.5.9s-.3.6.5.2c.6-.4 1.2-.3 1.2.2 0 .9-2.5 2.4-4.2 2.6-.5.1-.8.5-.8 1.1-.1.5-1.5 2.5-3.3 4.3-1.8 1.8-3.1 3.5-2.9 3.8.1.2.2 1.2.1 2.1 0 1-.3 1.3-.5.6-.8-1.9-5.2 3.3-6.5 7.7-.7 2.2-1.6 4-2.1 4s-.6-.5-.3-1c.4-.6.9-2.3 1.1-3.8.3-1.5 1.2-3.7 2-4.9 1.6-2.5 1.9-5.7.5-4.8-.5.3-.9-.9-.9-2.7.2-5.4 6.5-14.2 9.4-13.1.6.2 1.4-.3 1.7-1.1.4-.9 1.1-1.6 1.8-1.6.6 0 .8.7.5 1.7-.6 1.5-.4 1.5 1.4-.2 1.1-1 2-1.9 2-2.1C77 .2 59.7.1 38.5 0H0v130zM60.1 11.9c-1.2 2.2-2.1 4.7-2.1 5.4 0 .8-.7 2.8-1.6 4.3-1.5 2.7-1.5 2.7-.9.4.3-1.4.8-3.7 1-5.2.4-2.6 4.6-10 5.3-9.3.2.2-.6 2.1-1.7 4.4zm136.5 2.8c-.7.7-2.6-.7-2.6-1.9 0-.6.6-.6 1.5.2.9.7 1.3 1.5 1.1 1.7zm-14.1-.7c4.5 1.7 8.4 7.1 6.7 9.3-.5.7-.8 2.5-.7 4.2.2 1.6-.4 3.7-1.1 4.6-1.2 1.3-1.1 1.8.9 3.7 3.8 3.6 4.4 4.7 3.6 6.7-.4 1.1-.8 1.5-.8 1-.1-.6-.5-.3-1.1.5-.7 1.2-1.4 1.2-4.3.2-1.8-.7-5-1.2-7.1-1.2-4.6 0-4.4-1.8.5-3.6l3.4-1.3-3 .2c-5 .4-9.4 3.7-10.1 7.5-.4 2-.2 3.8.5 4.5.8.8 1.1.8 1.1-.2 0-.7.5-.9 1-.6.6.3 1 .1 1-.5s.4-.9.9-.5c.5.3 1.2.1 1.6-.5.3-.5 1.1-1 1.6-1 .6 0 .8.4.4.9-.8 1.5 3.3 3.3 5.8 2.6 2.1-.6 2.1-.5.4.9-1.1.8-1.4 1.7-.8 2 .5.4 2.5-.7 4.4-2.4 4-3.4 5.4-3.7 5.9-1.3.6 2.6-1.2 7.3-2.7 7.3-.8 0-1.7.5-2.1 1.2-.5.7-.3.8.7.3.8-.5.2.3-1.3 1.8-1.6 1.4-2.8 3.1-2.8 3.7 0 .5-.7 1-1.6 1-.8 0-1.2.4-.9 1 .3.5.1 1-.4 1-.6 0-1.1.9-1.1 2 0 2.1-5.5 9-7.2 9-.5 0-2.1.9-3.6 2-1.8 1.5-3.5 1.9-6.3 1.6-4.7-.6-7.9-2.2-7.9-4.1 0-1.6-5.4-7.5-6.9-7.5-2.3 0-3.7-10.6-2.9-22.1.1-1.6 2.1-2 3.4-.6 1.1 1 2.6.8 1.9-.2-.3-.5-.1-1.2.4-1.5.5-.3 1.1.3 1.4 1.4.6 2.5 4.5 2.7 6.3.2.9-1.1 1.3-1.3 1.4-.4 0 .7.4 1.1.9.8.4-.3.6-1.6.4-2.8-.5-2.4-1.1-2.6-11.2-3.1-6.1-.2-6.9-1.1-5.1-6 .7-1.7 1.4-5.2 1.7-7.7.3-2.5 1.1-5.6 1.8-6.9l1.2-2.5 1.2 2.2c1.1 2 4.3 3.2 3.9 1.4-.3-1.4 1.5-4.3 3.3-5.3 1.3-.7 2.6-.6 4 .2 1.7.9 2.5.7 4.2-.9 1.2-1.1 2.9-2.2 3.7-2.5 2.5-.9 8.7-.8 11.5.3zm-60.9 1.2c.3.4 1 .5 1.6.2.6-.4.8-.2.4.4-.3.6.2 1.3 1.2 1.6 3.4 1.1 6.5 5.4 6.4 8.8 0 1.8-.6 3.4-1.1 3.6-.6.2-1.1.8-1.1 1.3 0 .6.4.8.9.5.5-.4.7.4.3 1.6-.4 1.6-.2 1.9.8 1.3.9-.5 1.1-.4.6.4-.4.6-1.2.9-1.7.6-.5-.4-.9-.2-.9.4 0 .5-1.3 1.8-2.9 2.7-1.7 1-3.2 2.8-3.5 4-.7 2.6 2 16.4 3.9 20.1 1.9 3.6.7 5.9-2.7 5.4-.4 0-1.9.4-3.3.9-3.3 1.2-3.3 3.4 0 2.8 1.9-.4 2.6 0 3.4 2.1.5 1.4 1 2 1 1.3.1-1.8 2.1-.5 2.1 1.4 0 .8-1 1.4-2.2 1.4-1.3 0-3.2.7-4.2 1.5-1.1.8-2.7 1.3-3.6 1-.8-.3-2.1.4-2.8 1.5-1.2 2-.4 2.7 1.3 1.1 1.6-1.5 10.5-2.5 10.5-1.2 0 .6-1.2 1.4-2.6 1.7-1.4.4-2.3 1.2-2 1.9.2.7-.1 1.8-.7 2.4-.8.8-.5 1.1 1.3 1.1 4.6 0 6.8 1.1 7.3 3.6.2 1.3 0 2.1-.4 1.8-.5-.3-.9.2-.9 1.1 0 1.1-.5 1.5-1.5 1.1-.8-.3-2.6-.1-4 .4s-2.5.6-2.5.2c0-.4-1.2-.8-2.6-.9-1.4 0-3.1-.7-3.8-1.3-.8-1-.8-1.1.4-.5.9.5 1.2.4.7-.1s-4-.9-7.7-.9c-7.7-.1-7.9 1-1.1 4.2 7.5 3.6 10 7.9 9.6 16.9-.2 4.7 0 5.9.5 3.9.4-1.7.8-2.2.9-1.2.1 1.2.5 1.6 1.4 1.1.9-.6.9-.4-.1.8-1.1 1.3-.9 1.6 1.5 1.6 1.6 0 3.3-.3 3.8-.7.6-.3.4.1-.5.9-.9.9-1.5 2.2-1.3 3 .2.8-.2.5-.9-.7-.9-1.5-1.8-1.9-2.6-1.4-1.1.7-1 .9.2 1.4.9.4 1.6 1.2 1.6 1.9 0 1-.2 1-.9 0-.7-1.1-.9-1-1.5.3-.3.9-1 1.3-1.6 1-.5-.3-1-.1-1 .5 0 1.4 6.3.9 12-.9 1.9-.6 4.6-1.1 6-1.1 1.4 0 3.1-.4 3.9-.9 1.1-.7 1.1-1.3-.3-3.2-2-2.9-2.1-7.5-.1-8.3 1-.4 1.5.1 1.6 1.7.3 5.7.7 7.9 1.8 9 1.6 1.6 3.1-.7 3.1-4.6 0-1.6.5-3.8 1.2-5 1.2-2.4 3.8-5.2 3.8-4.2 0 .3.6 0 1.4-.7.8-.7 1.2-1.6.9-2.1-.2-.4 0-.7.6-.7.5 0 1.3-1 1.6-2.3.4-1.2 1.7-3.3 2.9-4.7 3.4-3.8 6-8.2 6.6-11 .5-2.2 1.1-2.5 5.3-2.7l4.9-.2-2.4 1.9-2.3 2 5-1.5c2.8-.8 6.2-1.5 7.6-1.5 1.5 0 4.3-.7 6.2-1.5 4.6-1.9 9.4-1.9 11.4 0 .8.8 1.8 1.3 2.3 1 .4-.2.6 2.6.4 6.3-.3 7.1-3.6 17.6-4.8 15.1-.3-.8-.4-.4-.2.8.2 1.3 0 2.3-.5 2.3s-.9.7-.9 1.5c0 .9-.6 1.2-1.5.9-.8-.4-1.5-.1-1.5.5s-.7 1.1-1.5 1.1-1.4.6-1.2 1.2c.1.7-.3 1.2-.9 1.1-.6-.1-1.7.9-2.4 2.2-.7 1.4-1.7 2.5-2.2 2.5-.5 0-.6.5-.3 1 .4.6.3.9-.2.8-.5-.2-2.3 1.2-4.1 3-1.8 1.8-3.2 2.7-3.2 2 0-.8-.4-.7-1.2.3-1.9 2.2-5.4 4.7-4.4 3.1.4-.6-1.4-.1-3.9 1.2-2.5 1.4-5.3 2.2-6.1 1.9-1.2-.4-1.4 0-.9 1.9.5 1.9.1 2.8-1.9 4.1-1.4 1-3.4 1.7-4.5 1.7s-2.2.4-2.6 1c-.3.5-1.2.7-1.9.4-.8-.3-2.7.1-4.3.9-2 1.1-3.4 1.2-4.6.6-1.1-.7-1.7-.6-1.7.1 0 .5-1.1 1-2.4 1-1.4 0-2.7.4-3.1.9-.3.5-2.5.8-5 .7-2.4-.2-4.6 0-4.7.4-.2.4-3.4-.1-7.3-1-5-1.2-7.2-1.4-7.7-.6-.5.8-.8.7-.8-.2 0-.8-.9-1-2.7-.6-2 .4-2.4.3-1.4-.4 1.4-1 .6-3.6-.8-2.7-.5.2-1.6-.4-2.6-1.5s-2.2-1.7-2.7-1.4c-.5.3-1.5.1-2.2-.5-1-.8-2.3-.7-5.1.4-2 .9-4.4 1.4-5.3 1.2-1.8-.4-1.3-.7 3.4-2.2.8-.3 1.3-.9.9-1.5-.3-.6-1.5-.6-3 0-1.6.6-2.7.6-3.1-.1-.4-.8-.9-.7-1.5.2-.7 1.1-.9 1.1-.9.1 0-.7-.4-1.1-.8-.8-1.7 1-6.2 1.4-6.7.6-.9-1.4 1.7-2.4 5.6-2.1 3.4.2 3.7 0 3.6-2.7-.1-1.6-.7-2.9-1.3-2.9-.6 0-1.1.7-1 1.6 0 .9-.5 1.5-1.2 1.3-.7-.1-2.7-.4-4.5-.6-1.8-.3-4.5-1-6-1.7-2.1-.9-2.4-1.5-1.6-2.6.9-.9.8-1.3 0-1.3-.6 0-1.4.7-1.7 1.5-.4.8-1 1.2-1.5.9-.5-.3-.9 0-.9.5 0 .6.3 1.1.8 1.1 2 .1 7.4 6.2 8.7 10 1.8 5 1.8 6 .4 6-.5 0-.7-.5-.4-1 .3-.6-.1-1.3-1-1.6-1-.4-1.5-1.6-1.3-3.3.2-2-.1-2.6-1.4-2.5-1 .1-1.5-.3-1.1-.9.4-.7 0-.8-1.1-.4-1.3.5-1.7.3-1.3-.5.2-.7 0-2.2-.4-3.3-.7-1.7-.6 8.3.2 12.1.4 2.1-.2 2.6-1.8 1.3-1.5-1.3-1.5-1.2-.2.9.8 1.2 1.5 1.8 1.7 1.2.2-.5 1-1 1.8-1 .9 0 1.2.4.9 1-.3.5-.2 1 .2 1 .5 0 1 1.2 1.1 2.7.1 1.5.9 3.7 1.7 4.9 2 3 1.9 3.8-.2 3-1.4-.6-1.4-.3.3 1.6 2.8 3 4.1 5.3 2.6 4.4-.7-.4-1.2-.5-1.2-.2 0 .2-.3 1.2-.7 2.2-.3 1-.2 1.5.3 1.2 1-.6 2.9 1 3.2 2.7.1.5.9 1.8 1.8 2.9.9 1 1.4 2.7 1.1 3.7-.3 1.1 0 1.9.6 1.9.7 0 2.1.8 3.2 1.7 2 1.5 2 1.5-.2 1-2.4-.5-3.2.8-1 1.6.9.4.8.8-.3 1.6-1.2.8-1.7.4-2.3-2.2-.5-1.8-1.6-4.1-2.5-5.1-1.1-1.3-1.2-1.7-.3-1.1 1 .5 1.2.4.7-.3-.4-.7-1.3-1.2-2.1-1.2s-1.7-.5-2.1-1.2c-.5-.7-.3-.8.6-.3.8.5.1-.8-1.5-2.9-1.7-2.2-3.4-3.5-4.2-3.2-.9.4-1.3 0-1.1-1.2.2-.9-.2-1.6-.8-1.5-.7.1-2-.7-2.9-1.7-2-2.2-3.5-2.6-3.5-.9 0 .5.5.7 1.2.3.7-.4.8-.3.4.5-.6.9-1.1.9-2.1.1s-1.5-.8-2 0c-.4.6-1.4.9-2.2.6-.8-.3-1.1-.1-.8.4.3.6 1.7 1 3 1 2.1 0 4.2 2.6 3 3.8-.3.3-.5.1-.5-.4s-.9-1-2-1.1c-2.4-.2-2.7 1.2-.4 2.1.8.3 1.2 1.1.9 1.6-.5.8-1.1.8-1.9.1-.6-.6-2.1-1-3.1-.9-1.1 0-3.2-.3-4.8-.7-2.2-.6-2.7-.4-2.7 1.1 0 .9-.3 1.4-.7 1-.5-.4-.8-1.3-.8-1.9 0-.7-1.1-1.2-2.5-1.3-1.4 0-3.1-.3-3.8-.8-.7-.4-1.2-.1-1.2.8s-.7 1.6-1.5 1.6c-.9 0-1.5-.6-1.3-1.4.2-.7-1.8-3.4-4.4-5.9-4-4-6.7-9.3-6-12 .1-.4-.2-.7-.8-.7-.5 0-1 .3-1 .7 0 1-6.2 1.8-11 1.4-2.3-.2-2.3-.3-.5-1 1.1-.5 2.3-.7 2.8-.4 1.1.6 2.8-.7 2.2-1.8-.4-.5-1.4-.5-2.6.1-2.4 1.4-2.4.5 0-2.1l1.9-2.1 2.1 2.1c1.6 1.6 2.1 1.7 2.1.6 0-.8-.4-1.5-.8-1.5s-.5-2.4-.2-5.2c.6-5 2-8.2 6.3-13.8l2-2.5-.7 2.8c-.4 1.5-.2 2.6.3 2.5.5-.2 1.7.6 2.6 1.7 1.2 1.5 1.4 1.6.8.2-1.3-2.6-.4-8.7 1.3-8.7.8 0 1.7.7 2 1.4.5 1.2 1 1.1 2.9-.7 1.2-1.2 2.1-2.5 1.9-2.8-.2-.4 1-2.2 2.6-4 1.6-1.9 3-3.8 3-4.4 0-.5 1.9-2.7 4.1-4.7 2.3-2.1 3.8-3.8 3.4-3.8-.7 0-4.3 2.8-12.5 9.9-2.5 2.1-4.9 3.9-5.4 3.9s-1.3.6-1.8 1.4c-.8 1.1-.9 1.1-.6 0 .2-.8.6-1.2.8-1.1.3.2 2.7-2 5.5-5 6.1-6.6 12.7-10.6 15.1-9.3.9.5 3.2.6 5 .2 1.9-.4 3.4-.5 3.4-.1 0 .3.4 0 .9-.8.6-.9 1.1-1 1.5-.3.6 1-5.2 3.2-7.8 3.1-.5 0-1.2.4-1.5.9-.3.5-1.9 1.6-3.6 2.4-2.4 1.3-3 2.3-3.1 5.2 0 2 .3 3.6.8 3.6s.6-.5.3-1c-.3-.6-.2-1 .4-1 .5 0 1.2.6 1.5 1.2.3.7.3-.2 0-2-.5-2.7-.3-3.2 1.4-3.2 1.1 0 3.9-1.2 6.1-2.7 4.9-3.2 8.1-3.9 8.1-1.8 0 .8.8 1.5 1.7 1.5 1.4 0 1.3.4-.7 2.5-1.2 1.3-2.6 2.2-3.1 2-.4-.3-1-.1-1.4.5-.4.6-1.2.5-2.1-.5-.9-.8-2.2-1.5-3-1.5-1 0-.5.9 1.4 2.5 1.7 1.4 4 4.4 5.2 6.8 2 3.8 2.1 3.2.4-2.1-.4-1.3 1.3-3.4 6.2-7.7 3.7-3.3 7.8-7 9-8.2 1.3-1.2 2.4-2 2.4-1.7 0 .3.7-.2 1.6-1 .8-.9 1.9-1.4 2.3-1.1.5.2 1.8-.5 2.9-1.6 2-1.8 2.2-1.8 2.3-.2 0 1.4.2 1.3.9-.5.5-1.2 1.4-2.2 2-2.2.6 0 1-.6.9-1.3-.1-.6.1-2.4.5-4 .5-1.6.4-3.2-.2-4-.6-.6-1-1.4-1-1.7.1-.3-.9-2.4-2.1-4.8-1.2-2.3-1.7-4.2-1.1-4.2.5 0 1-.5 1-1.1 0-.5-.4-.7-1-.4-.6.4-1-.7-1-2.5s-.4-2.9-1-2.5c-.6.3-.7-.1-.4-.9.3-.9 1-1.6 1.6-1.6.5 0 .6-.4.3-1-1.6-2.7-2.3-13.7-1.1-19 .4-1.9.8-4.2.8-5 .1-.8 1-2.8 2.1-4.4 1.1-1.5 2.2-4.5 2.4-6.4.2-2 .9-4 1.6-4.4.9-.6.8-.8-.3-.8-1.2-.1-1.2-.3.3-1.4.9-.7 1.7-1.8 1.7-2.5 0-.6.3-1 .8-1 .4.1 1 0 1.5-.1.4-.1 1-.3 1.5-.4.4-.1 2.7-1.1 5.2-2.3 2.5-1.1 5.8-2.1 7.3-2.2 1.6 0 3.6-.5 4.5-1 2.1-1.2 7.1-1.1 7.8.1zm69 2.9c0 1.9-.1 1.9-1.3.3-.7-1-1.3-2.1-1.3-2.6 0-.4.6-.5 1.3-.2.7.2 1.3 1.4 1.3 2.5zM133.5 44c-.3.5-1.2 1-1.8 1-.7 0-.6-.4.3-1 1.9-1.2 2.3-1.2 1.5 0zm-.4 7.9l-2.3.6 2.5 1.4c1.4.8 3.3 1.1 4.1.8.9-.4 2 .1 2.5 1.2 1.2 2.1 1 6.1-.2 6.1-.4 0-.6.4-.2.9.5.9-3.1 4.1-4.8 4.1-.9 0-4.1-7.1-5.6-12.4l-.9-3.6 3.6.1c3 .1 3.3.2 1.3.8zM80.8 68c.2 1.4.1 2.2-.4 1.8-.4-.4-1.3-.3-1.9.2-.9.7-1.6.6-2.3-.3-.9-1.1-.7-1.3 1-1.3 2.6.1 3.5-2.1 1.1-2.8-1.5-.4-1.5-.5.2-.3 1.3.1 2.1 1.1 2.3 2.7zm-16 28.5c-.3.3-.9-.2-1.2-1.2-.6-1.4-.5-1.5.5-.6.7.7 1 1.5.7 1.8zm1.9-.3c-.3.8-.6.5-.6-.6-.1-1.1.2-1.7.5-1.3.3.3.4 1.2.1 1.9zm-4 .4c-.3.3-1.2.4-1.9.1-.8-.3-.5-.6.6-.6 1.1-.1 1.7.2 1.3.5zm-2 4.1c-.4.3-.2 1.2.4 1.9.8 1 .4 1.1-2.1.1-3.3-1.2-3.1-1.4 1.9-2.6.2-.1.1.2-.2.6zM199 114c0 .5-.5 1-1.1 1-.5 0-.7-.5-.4-1 .3-.6.8-1 1.1-1 .2 0 .4.4.4 1zm16.4.6c.3.8.2 1.2-.4.9-1.8-1.1-1.1.8 1.2 3.2 1.5 1.6 1.7 2.2.7 1.8-2.1-.8-4.3-5-3.5-6.4.9-1.5 1.3-1.4 2 .5zm-81.7 7c-.1.2-.9-.1-1.6-.5-.9-.6-1.1-1.6-.5-3.2.7-2.4.7-2.4 1.5.5.5 1.7.7 3.1.6 3.2zm-10.7-3.2c0 .3-.4.8-1 1.1-.5.3-1 .1-1-.4 0-.6.5-1.1 1-1.1.6 0 1 .2 1 .4zm91.8 8.6c.7 1.2 1 2.5.7 2.9-.3.5.5.7 1.7.3 1.7-.4 2-.2 1.5 1.2-.5 1.3-.1 1.9 1.3 2.3 1 .3 2.2 1.3 2.5 2.2.3.9 1.8 2.4 3.3 3.5 2.1 1.4 2.7 2.6 2.6 4.7-.1 1.6.2 2.9.8 2.9.5 0 .6.4.3 1-.3.5-.1 1 .6 1s.9.3.6.6c-1 1.1-5.7-2.5-5.7-4.4 0-.9-3.2-4.9-7-8.9-4.1-4.2-7-8-7-9.2 0-2.7 2.1-2.7 3.8-.1zm-136 15.8c-1 .2-1.8.8-1.8 1.4 0 .6-.6.6-1.5-.2-2.1-1.8-1-2.8 2.2-2.2 1.9.4 2.3.7 1.1 1zm83.2 3.7c-1.1 2-2 4.2-2 5 0 .8-.3 1.5-.7 1.5-1.8 0-7.4 9.9-7.5 13.1-.1 1.9-.3 2.8-.5 2.1-.3-.6-1.1-1.2-1.9-1.2-.8 0-1.5-.5-1.5-1-.2-1.3-.4-2.1-1.2-4-.3-.8-.8-3.6-1.2-6.3-.4-3-1-4.5-1.7-4.1-.6.4-.8.3-.5-.3.4-.5 3.9-2 7.9-3.3 4-1.2 8.2-2.9 9.3-3.6 3.2-2.2 3.6-1.6 1.5 2.1zm54.5-.5c.3.5 1.5 1 2.7 1 1.1 0 2.2.8 2.5 2 .3 1.1.9 2.1 1.4 2.1 1.9.3 2.5.5 4.3 1.6 1.2.6 1.7 1.7 1.3 2.7-.4.9-.2 1.6.3 1.6.6 0 1 .4 1 1 0 1.5-1.7 1.2-3.5-.6-.9-1-1.4-2.6-1.1-3.7.3-1.4.2-1.7-.6-.9-1.4 1.4-5.2-.4-4.2-2 .5-.7.2-.9-.8-.5-1.9.7-5.8-1.9-5.8-3.9 0-1.6 1.6-1.9 2.5-.4zm-112.8 6.1c1.8 1.1 3.3 2.3 3.3 2.5 0 .3-.5.2-1.2-.2s-.8-.3-.4.5c.4.6 1.1.9 1.5.6.5-.2 2.2 0 4 .5 2.2.6 3.1.5 3.2-.3 0-.8.2-.8.6.1.2.6.9 1 1.3.7.5-.3 1.1-.1 1.5.5 1.4 2.3-8.4.8-19.8-3.1-6.7-2.2-12.4-4.2-12.6-4.5-.2-.2 3.1-.1 7.4.1 5.5.4 8.9 1.2 11.2 2.6zm32.8.9c.3.5.1 1-.4 1-.6 0-1.1-.5-1.1-1 0-.6.2-1 .4-1 .3 0 .8.4 1.1 1zm-3 1c-.3.5-1.1 1-1.6 1-.6 0-.7-.5-.4-1 .3-.6 1.1-1 1.6-1 .6 0 .7.4.4 1zm3.2 2.5c0 .8-.4 1.2-.9.9-.4-.3-.8-.9-.8-1.5 0-.5.4-.9.8-.9.5 0 .9.7.9 1.5zm-5.2.4c-.3.5 0 1.3.6 1.6.6.4.8 1.8.5 3-.3 1.3-.2 2.5.3 2.7 1.1.4-.7 10.8-2.1 12.3-.6.7-.9.5-.7-.5.5-2.8-1.3-9.1-2.5-8.7-.6.3-1 1.1-.8 1.8.6 2.5-1.5-.4-2.3-3.1-.5-1.9-.4-2.1.4-1 .8 1.2 1.1.6 1.1-2.3 0-2.3.4-3.6 1-3.2.6.3 1 1.6 1 2.8 0 1.8.2 1.9 1 .7s1-1.2 1-.1c0 2 1 .8 1.5-1.7.2-1.2 0-2.4-.6-2.7-1.2-.8-1.2-2.5.2-2.5.5 0 .8.4.4.9zm9.2.6c0 .8-.4 1.5-.9 1.5-1 0-1.1-1.4-.1-2.3.9-1 1-.9 1 .8zm-18 2.1c.2 1.3.1 1.5-.4.4-.3-.8-1.1-1.9-1.7-2.3-.7-.6-.6-.7.4-.4.8.2 1.6 1.2 1.7 2.3zm17.3 5.8c0 .3-.4.8-1 1.1-.5.3-1 .1-1-.4 0-.6.5-1.1 1-1.1.6 0 1 .2 1 .4zm-80.4 5.2c-.3.9-.6 2-.6 2.5 0 .4-.7.5-1.7.2-1.2-.5-1.4-.3-.8.7.5.8.4 1.1-.3.6-1.4-.8-.4-3.6 1.1-3.3.7.1 1.1-.4 1-1.1-.2-.6.2-1.2.8-1.2.6 0 .8.7.5 1.6zm-20.6.2c0 .5-.7.9-1.5.9s-1.2-.4-.9-.9c.3-.4.9-.8 1.5-.8.5 0 .9.4.9.8zm-12.9 1.9c1.3 1.6 1.2 1.7-.3.4-1.7-1.3-2.2-2.1-1.4-2.1.2 0 1 .8 1.7 1.7zm19.1-.5c.3.7.3 1.9.1 2.5-.5 1.5-4.3 1.8-4.3.3 0-.5.6-.7 1.4-.4.8.3 1.7.1 2.1-.5.3-.6.1-1.1-.4-1.1-.6 0-1.1-.5-1.1-1 0-1.4 1.7-1.2 2.2.2zM48 176c0 .5-.2 1-.4 1-.3 0-.8-.5-1.1-1-.3-.6-.1-1 .4-1 .6 0 1.1.4 1.1 1zm89 15c-.5 2.2-.8 2.7-.9 1.3-.1-2.1.9-5.6 1.4-5.1.2.2 0 1.9-.5 3.8zm4.2 7.2c-.8.8-.9.4-.5-1.3.4-1.3.8-1.8 1.1-1 .2.7-.1 1.8-.6 2.3zm-3.4-.8c-.7.8-1.6 1.2-2.1.9-1.1-.7.2-2.3 1.9-2.3 1.2 0 1.2.2.2 1.4zm.7 5.4c.1 1.1-.4 2.3-1.2 2.6-1.5.6-1.7-.3-.3-2.4.6-.9.5-1.7-.3-2.3-.9-.6-.8-.7.2-.5.8.2 1.5 1.4 1.6 2.6zm6.4-.5c1.2 1.5 1.2 1.7-.3 1.1-.9-.3-1.6-1.3-1.6-2.2 0-.8.1-1.3.3-1.1.1.2.9 1.2 1.6 2.2zm3.5 5.2c-.4.8-1 1.2-1.5.9-1.4-.8-1-2.4.6-2.4.9 0 1.2.6.9 1.5zm3.1 5.5c.3.5-.1 1-.9 1-.9 0-1.6-.5-1.6-1 0-.6.4-1 .9-1 .6 0 1.3.4 1.6 1zm-1.5 6.1c0 1.1-.4 1.9-.8 1.9-.5 0-.8-1-.8-2.3.1-1.3-.4-2.1-1.2-1.9-.8.1-1.1-.2-.7-.8 1-1.6 3.5.7 3.5 3.1zm4-3.1c0 .5.7 1 1.6 1 1 0 1.4.6 1 1.5-.3.8-.1 1.5.5 1.5s.7.5.3 1.2c-.5.7-1.1.5-2.1-.8-2.6-3.5-3.4-5.4-2.3-5.4.5 0 1 .4 1 1zm-23 34c0 .5-.5 1-1.1 1-.5 0-.7-.5-.4-1 .3-.6.8-1 1.1-1 .2 0 .4.4.4 1z"/><path d="M154.1 37.4c.2.2 1.5.9 2.9 1.6 2.3 1.2 2.4 1.2 1.1-.3-.7-1-2-1.7-2.9-1.7-.8 0-1.3.2-1.1.4zM167.1 52.5c.2.5-.2 2.5-.8 4.2-1.2 3.3-3 4.2-4.9 2.3-.8-.8-1.5-.6-2.4.5-.8 1-.9 1.5-.1 1.5 1.6 0 2.3.2 5.8 1.7 1.8.7 3.9 1.3 4.7 1.3 2.2 0 2.7-4.2.8-7-.9-1.4-1.7-2.8-1.7-3.2 0-.3-.4-1-.8-1.5-.5-.4-.7-.4-.6.2zM159.4 67.8c-2.4.3-6.1 3.8-5.1 4.8.3.3 1.6-.1 2.9-1 2.2-1.5 2.4-1.4 3.6 1.2 1 2.3 1.8 2.7 5.7 3 3.3.2 4.5-.1 4.5-1.2 0-.8.6-1.6 1.2-1.8.8-.3.3-1.4-1.5-3-2.7-2.5-5.1-2.9-11.3-2zm6.6 4.4c0 1.3-4.3.6-4.7-.8-.2-.7.6-1 2.2-.7 1.4.3 2.5 1 2.5 1.5zM100.8 40.2c-3.9 1.4-3.5 2.5.7 2 2.1-.3 3.5 0 3.5.7 0 .6.8 1.1 1.7 1.1 3.1 0 .2 1.4-3.4 1.7-3.5.2-8.3 3.5-8.3 5.7 0 .6 1-.1 2.1-1.7 1.6-2.1 2.8-2.7 5.7-2.6l3.7.1-3.5 1c-4 1.1-6.8 3.4-5.6 4.5.5.5 1.1.3 1.3-.4.4-1.1 2-.2 5.8 3.4 1.3 1.2 2 1.2 6.3-.3 1.5-.6 1.5-.7-.3-1.4-1.7-.7-1.7-.9-.2-.9 2-.1 2.2-1.2.6-2.8-.9-.9-.7-1 1-.6 2.4.6 2.5.4 1.1-3.1-.6-1.6-.6-2.7 0-3.1 1.8-1.1 1.1-2.1-2.3-3.3-3.9-1.4-6.2-1.4-9.9 0zm6.4 14c-.7.7-1.2.8-1.2.2 0-1.4 1.2-2.6 1.9-1.9.2.3-.1 1.1-.7 1.7zM57.6 110.6c-.5 1.4-.4 1.5.9.4 1.7-1.4 1.9-2 .6-2-.5 0-1.2.7-1.5 1.6zM43.5 122.1c-.8 2.5.1 3.7 1.7 2.1.9-.9.9-1.2 0-1.2-.6 0-.9-.7-.6-1.5.4-.8.4-1.5.1-1.5-.3 0-.9.9-1.2 2.1zM85.5 122c.4.6 1.1.8 1.6.5 1.4-.9 1.1-1.5-.7-1.5-.8 0-1.2.5-.9 1zM36 125.9c0 3 .1 3.1 1.6 1.6 1.6-1.5 1.6-1.8 0-3.3-1.5-1.5-1.6-1.4-1.6 1.7zM76 125.9c1.4 1.1 3.1 2.1 3.9 2.1 1.8 0 1.4-.4-2.9-2.4l-3.5-1.7 2.5 2zM100.6 125c.6.8 1.3 2.2 1.6 3 .3.9.7 1 1.1.3.4-.6-.3-1.9-1.6-2.9-1.2-1.1-1.7-1.2-1.1-.4zM153 135c0 .5.7 1 1.6 1 .8 0 1.2-.5.9-1-.3-.6-1-1-1.6-1-.5 0-.9.4-.9 1zM149 137c-1.3.8-1.3 1 .2 1 .9 0 2-.5 2.3-1 .8-1.3-.5-1.3-2.5 0zM54 142c0 .5-.6 1-1.4 1-1 0-1.2.7-.8 2.2.5 1.9.6 1.9 1.1.5.5-1.4 1-1.2 2.6 1.5 1 1.8 2.5 3.9 3.2 4.6.7.8 1 1.9.6 2.5-.5.8-.9.6-1.1-.6-.2-.9-.8-1.5-1.3-1.1-.6.4-.7 1 0 1.7.5.7.9 1.6.9 2.2 0 .5.6 1.1 1.4 1.3.9.2 1 .1.2-.5-.9-.6-.8-1.2.3-2.2 1.2-1.1 1.4-1.1 1.2 0-.1.8-.1 2.1 0 2.9.1 1.3.2 1.3 1.2 0 .8-1.2.9-1 .4.8-.4 1.3-.1 2.9.5 3.7.7.8.9 1.5.4 1.5-1.3 0 3 2.9 4.4 3 2 0 1.4-1.6-3.4-8.5-2.5-3.7-4.3-7.3-4-8.1.3-.7 0-1.6-.6-2-.7-.4-.8-.3-.4.4s.3 1.2-.3 1.2c-1.6 0-2.4-2.2-1.1-3 .9-.6.7-1.3-.8-2.8-1.1-1.1-1.8-2.3-1.4-2.6.3-.3 0-.6-.6-.6-.7 0-1.2.4-1.2 1zm3 4c0 .5-.2 1-.4 1-.3 0-.8-.5-1.1-1-.3-.6-.1-1 .4-1 .6 0 1.1.4 1.1 1zM48.4 147.6c1.9 2.9 2.3 4.1 1.4 5.1-.8 1.1-.7 1.2.6.7 1.9-.7 1.9-.4.5-4.3-.6-1.7-2-3.6-3.1-4.2-1.7-.9-1.7-.6.6 2.7zM23.2 156.5c2.2 2.5 3.4 3.3 2.3 1.5-.3-.6-.1-1 .5-1s.8-.5.5-1c-.4-.6-1-.8-1.5-.5-.5.3-1.1.1-1.5-.5-.3-.5-1-1-1.6-1-.5 0 .1 1.1 1.3 2.5zM53.1 155.1c-.1.9.5 1.9 1.2 2.2.8.3 1.4-.1 1.4-.9 0-.7-.4-1.1-.8-.8-.4.2-1-.2-1.2-.8-.4-.8-.6-.7-.6.3zM31 157.9c0 .6.4 1.3 1 1.6.6.3.7-.1.4-.9-.7-1.8-1.4-2.1-1.4-.7z"/><path d="M56.6 160.2c.3.4 1.1.5 1.9.1 2.1-.7 1.9-1.2-.4-1-1.1 0-1.8.5-1.5.9zM60 162.4c0 .8.5 1.8 1 2.1.6.3 1-.1 1-.9s-.4-1.8-1-2.1c-.5-.3-1 .1-1 .9zM51.5 163c.3.5.8 1 1.1 1 .2 0 .4-.5.4-1 0-.6-.5-1-1.1-1-.5 0-.7.4-.4 1zM36.1 164.3c-.8 1-.7 1.4.4 1.4.8 0 1.2-.4.9-.8-.2-.4.2-1 .8-1.2.8-.4.9-.6.2-.6-.6-.1-1.7.5-2.3 1.2zM41.6 165.5c.3.8 1 1.3 1.4 1 .5-.3 1.3.2 1.8 1 .5 1 1.5 1.3 2.5.9.9-.3 1.4-1 1.1-1.5-.3-.5-1-.7-1.5-.4-.5.4-.9.1-.9-.6s-.3-.9-.6-.6c-.4.3-1.5.2-2.5-.4-1.5-.7-1.7-.6-1.3.6zM216.7 148.1c.7.7 1.5 1 1.8.7.3-.3-.2-.9-1.2-1.2-1.4-.6-1.5-.5-.6.5zM223.8 210.1c-1 1-1.8 2.4-1.8 3 0 .5-.6.7-1.2.3-.7-.4-1-.4-.6.1.4.4.2 1.5-.5 2.4-1.1 1.4-1 1.5.8.1 1.1-.8 2.3-1.9 2.7-2.4.3-.5 1.5-1 2.5-1.1 2.4-.1 4.3-1.3 4.3-2.6 0-.6-.9-.7-2.1-.4-1.5.5-1.9.4-1.5-.4 1.1-1.8-.7-1.1-2.6 1zM235 210.7c0 .6-.3 1.8-.6 2.7-.3.9-.1 1.6.5 1.6 1.7 0 2.5-3 1.2-4.3-.8-.8-1.1-.8-1.1 0zM210.3 216.3c-5.2 1.9-4.7 2.5.8 1.1 2.8-.8 5.6-1.1 6.2-.7.6.3.7.1.3-.5-.9-1.5-3.1-1.4-7.3.1zM220.4 220.5c-.4.8-1 1.2-1.5.9-.5-.3-.9 0-.9.5 0 .6.9 1.1 2 1.1 1.3 0 2-.7 2-2 0-2.4-.8-2.6-1.6-.5zM211.7 222.1c-.7 2.7 2 3.7 4.1 1.4.9-1 1.1-1.5.5-1.1-.8.4-1.3.1-1.3-.8 0-2.3-2.7-1.9-3.3.5zM247 221.7c0 .9-.3 1.3-.7 1-.4-.4-1.2.6-1.9 2.2-.9 2.1-1.8 2.8-3.5 2.7-1.3-.1-2.8 0-3.4.3-1.7.9-5 .9-6.8-.1-1.5-.8-2-.5-2.4 1.1-.3 1.1-.9 1.8-1.4 1.5-.5-.3-.6.2-.3 1 .3.9 1 1.4 1.4 1.1 1.7-1 .3 2.5-1.8 4.8-1.2 1.3-2.2 3.5-2.2 5s-.4 2.7-1 2.7c-.5 0-1 .7-1 1.6 0 .8-.5 1.2-1.1.8-.7-.4-.9 0-.5 1.2.4 1.4-.3 2.5-2.4 3.9-1.7 1.1-3.7 1.9-4.5 1.7-.8-.2-1.5.3-1.6 1 0 .7-.4.4-.9-.7-.6-1.4-.9-1.6-.9-.4-.1 1.4-2.7 1.6-9.6.8-.5-.1-3.2 1-6 2.5l-5 2.5H260V247c0-11.5-.9-16.4-2.3-12.8-.3.7-.6.3-.7-1-.2-1.2-.4-2.7-.5-3.2-.1-.6-.3-1.3-.4-1.8-.1-.4-.5-.1-1 .6-.7 1.1-.9 1.1-1.4-.2-.5-1.2 0-1.6 1.6-1.6 1.3 0 2.8.5 3.4 1.1.8.8 1.1-.1 1.1-3.5V220h-6.4c-5.3 0-6.4.3-6.4 1.7zm5.5 7.3c.3.5.2 1-.4 1-.5 0-1.3-.5-1.6-1-.3-.6-.2-1 .4-1 .5 0 1.3.4 1.6 1zm-13.5 4.7c-1.4.2-3 1.1-3.7 2-1.4 1.8-3.5.9-2.6-1.2.3-1 1.8-1.5 4.7-1.4 2.6.1 3.2.3 1.6.6zm15.1 17c1.2 1.6 1.2 1.7-.2.6-.9-.7-2-.9-2.4-.5-.5.4-.5.1-.1-.6.9-1.6 1.1-1.5 2.7.5zm-17.7 1.3c1.7 1.6-.3 2.6-5 2.5-5.2 0-6.7-1.6-3.2-3.2 2.3-1.1 6.6-.7 8.2.7zm12.9 1.7c-.7.2-1.3 1.1-1.3 1.9 0 1.4-2.1 1.9-3.3.7-.7-.6 3-3.1 4.8-3.1.6 0 .4.2-.2.5zM161.7 222.4c-.3.8-.1 1.7.6 2 .7.3-.1.2-1.7-.1-2-.4-2.7-.3-2.2.6 1 1.6 4.6 1.4 5.3-.5.3-.8.1-2-.4-2.5-.7-.7-1.2-.5-1.6.5zM205.4 222.5c-.7 1.8.2 4.5 1.5 4.5.6 0 1.5-.9 2.1-2 .8-1.6.8-2-.2-1.8-.7.2-1.2-.3-1-1 .3-1.7-1.7-1.5-2.4.3zM235.8 221.7c.7.3 1.6.2 1.9-.1.4-.3-.2-.6-1.3-.5-1.1 0-1.4.3-.6.6zM197 225.4c-.9 2.4.9 4 3.4 3 1.8-.7 2.2-2.4.5-2.4-.6 0-.9-.6-.6-1.3.3-.8-.2-1.4-1-1.4s-1.8 1-2.3 2.1zM155.5 225.2c-.4 1-1.3 1.8-2.1 1.8s-1.4.4-1.4.9c0 1.5 1.8 2.3 2.5 1.1.3-.5 1.1-1 1.7-1 .7 0 .6.5-.1 1.4-.8 1-.9 1.6-.1 2.1.6.4 1 .3.9-.2-.1-.4.1-1.6.5-2.5.4-.9.3-2.5-.2-3.5-1-1.7-1.1-1.7-1.7-.1zM167 225.8c0 .6.6 1.2 1.3 1.5.6.2.9.8.5 1.2-.4.4-1.4.2-2.3-.5-1.2-1-1.5-1-1.5.4 0 1.2.8 1.6 2.9 1.4 2.4-.2 2.8-.5 2.1-2.2-.7-2.1-3-3.4-3-1.8zM189.8 226.7c.7.3 1.6.2 1.9-.1.4-.3-.2-.6-1.3-.5-1.1 0-1.4.3-.6.6zM174.9 228.7c-.1.5-.1 1.2 0 1.6.1.5-.3.6-.9.2-.5-.3-1.7-.2-2.6.3-1.3.7-1.3 1-.1 2 2.1 1.8 4.7.4 4.7-2.4 0-2.2-.8-3.4-1.1-1.7zM188.6 229.2c-.9.5-1.4 1.3-1.1 1.9 1 1.5 4 1 5.7-1 1.5-1.7 1.4-1.9-.7-1.9-1.2 0-2.9.5-3.9 1zM181.4 230.4c-.3.8-1.4 1.3-2.4 1.1-1.3-.3-1.7.1-1.3 1.1.3.8 1.5 1.4 2.8 1.4 1.9 0 2.2-.4 1.8-2.3-.4-1.8-.3-1.9.6-.7.7.9 1.1 1 1.1.3 0-1.9-2-2.6-2.6-.9zM159.3 231.6c.8 1.4-1.7 3.7-2.8 2.6-.4-.4-.6-.1-.3.7.2.8 1.5 1.8 2.8 2.3 1.3.5 2.1.6 1.7.2-.4-.4-.2-1.3.5-2.1.9-1.1.7-1.8-.7-3.1-1-.9-1.5-1.2-1.2-.6zM161.1 239.3c-1.5 1.8-.6 2.5 2.4 1.9 2.8-.5 3.3-1.7.9-2.6-2.1-.8-2-.8-3.3.7zM143.3 244.2c-.2 1.6.1 1.8 1 .9.7-.7.8-1.4.1-2.1-.6-.6-1-.2-1.1 1.2zM173.9 245.8c-.3 2-.2 2.9.4 2.3.5-.5.7-1.9.5-3.2-.3-2-.5-1.9-.9.9zM179.3 252.5c.2 6.9.2 7 3 7.3l2.8.3-1.5-3c-.9-1.6-1.6-3.6-1.6-4.3-.1-.7-.7-2.7-1.5-4.3-1.3-2.9-1.4-2.7-1.2 4zM133 248c0 .5.7 1 1.6 1 .8 0 1.2-.5.9-1-.3-.6-1-1-1.6-1-.5 0-.9.4-.9 1zM167.1 251.6c0 1.1.3 1.4.6.6.3-.7.2-1.6-.1-1.9-.3-.4-.6.2-.5 1.3zM174.1 254.7c.5 2.5 1.1 4.9 1.4 5.1 1 1 1.7-.7.9-2-.9-1.4-1-1.9-1.2-5.6-.1-1.2-.6-2.2-1.1-2.2-.5 0-.5 2 0 4.7zM151.2 258c0 1.4.2 1.9.5 1.2.2-.6.2-1.8 0-2.5-.3-.6-.5-.1-.5 1.3zM170.4 257.8c.3.6-.2 1.3-1.1 1.5-1.4.4-1.3.5.5.6 2.3.1 3-1.3 1-2.5-.6-.4-.8-.3-.4.4z"/></svg>